<svg width="238" height="238" viewBox="0 0 238 238" fill="none" xmlns="http://www.w3.org/2000/svg">
<path d="M215.936 0H21.5936C9.66315 0 0 9.66315 0 21.5936V215.936C0 227.867 9.66315 237.53 21.5936 237.53H215.936C227.867 237.53 237.53 227.867 237.53 215.936V21.5936C237.53 9.66315 227.856 0 215.936 0ZM201.782 102.289C200.378 102.419 198.964 102.505 197.539 102.505C181.397 102.505 167.21 94.213 158.951 81.6563C158.951 114.576 158.951 152.041 158.951 152.667C158.951 181.656 135.446 205.15 106.467 205.15C77.4888 205.14 53.9841 181.635 53.9841 152.656C53.9841 123.667 77.4888 100.173 106.467 100.173C107.569 100.173 108.638 100.27 109.706 100.335V126.204C108.627 126.074 107.579 125.88 106.467 125.88C91.6758 125.88 79.6805 137.875 79.6805 152.667C79.6805 167.459 91.665 179.454 106.467 179.454C121.27 179.454 134.334 167.793 134.334 153.002C134.334 152.408 134.593 32.4012 134.593 32.4012H159.307C161.628 54.5023 179.475 71.95 201.782 73.5479V102.289Z" fill="#22223B"/>
</svg>
