<svg width="238" height="238" viewBox="0 0 238 238" fill="none" xmlns="http://www.w3.org/2000/svg">
<path d="M69.2595 0C31.0671 0 0 31.0959 0 69.2982V168.268C0 206.46 31.0959 237.528 69.2982 237.528H168.268C206.46 237.528 237.528 206.432 237.528 168.229V69.2595C237.528 31.0671 206.432 0 168.229 0H69.2595ZM188.043 39.5879C193.506 39.5879 197.94 44.0218 197.94 49.4849C197.94 54.948 193.506 59.3819 188.043 59.3819C182.58 59.3819 178.146 54.948 178.146 49.4849C178.146 44.0218 182.58 39.5879 188.043 39.5879ZM118.764 59.3819C151.513 59.3819 178.146 86.0147 178.146 118.764C178.146 151.513 151.513 178.146 118.764 178.146C86.0147 178.146 59.3819 151.513 59.3819 118.764C59.3819 86.0147 86.0147 59.3819 118.764 59.3819ZM118.764 79.1758C108.264 79.1758 98.1951 83.3467 90.7709 90.7709C83.3467 98.1951 79.1758 108.264 79.1758 118.764C79.1758 129.263 83.3467 139.332 90.7709 146.757C98.1951 154.181 108.264 158.352 118.764 158.352C129.263 158.352 139.332 154.181 146.757 146.757C154.181 139.332 158.352 129.263 158.352 118.764C158.352 108.264 154.181 98.1951 146.757 90.7709C139.332 83.3467 129.263 79.1758 118.764 79.1758Z" fill="#22223B"/>
</svg>
