<?xml version="1.0" encoding="UTF-8"?>
<svg id="Layer_2" data-name="Layer 2" xmlns="http://www.w3.org/2000/svg" viewBox="0 0 104.4 87.53">
  <defs>
    <style>
      .cls-1 {
        fill: #a7a6a7;
      }

      .cls-1, .cls-2, .cls-3, .cls-4 {
        stroke-width: 0px;
      }

      .cls-2 {
        fill: #747374;
      }

      .cls-3 {
        fill: #d9dada;
      }

      .cls-4 {
        fill: #faf9f9;
      }
    </style>
  </defs>
  <g id="Layer_1-2" data-name="Layer 1">
    <g>
      <path class="cls-1" d="M104.4,23.04c-.57,1.03-1.41,1.87-2.14,2.79-2.01,2.53-4.05,5.05-6.08,7.56-2.07,2.55-4.16,5.09-6.22,7.64-2.62,3.24-5.21,6.49-7.83,9.73-2.85,3.54-5.71,7.07-8.57,10.6-2.86,3.54-5.73,7.08-8.6,10.62-3.53,4.36-7.05,8.73-10.58,13.09-.59.72-1.18,1.44-1.75,2.18-.26.33-.41.4-.73.01-3.38-4.22-6.78-8.43-10.19-12.64-4.16-5.15-8.34-10.28-12.5-15.43-3.5-4.32-6.97-8.66-10.48-12.98-1.99-2.45-4.04-4.87-6.03-7.32-1.77-2.18-3.51-4.4-5.27-6.59-1.38-1.71-2.78-3.4-4.16-5.1C2.18,25.85,1.09,24.49,0,23.13c-.01-.02.03-.08.05-.12.41-.28.87-.22,1.32-.22,9.44,0,18.89,0,28.33,0,1.36,0,1.35,0,.84-1.22-2.85-6.75-5.73-13.49-8.57-20.25-.15-.36-.41-.71-.27-1.15h-.02c.29-.16.59-.08.89-.08,19.97,0,39.94,0,59.91,0,.73.13.28.59.18.85-.48,1.22-1,2.42-1.51,3.62-2.51,5.88-4.98,11.78-7.49,17.66-.12.28-.19.58-.49.74-.05.06-.11.09-.19.11-.34-.09-.53-.37-.74-.61-1.58-1.79-3.24-3.51-4.85-5.28-2.06-2.27-4.16-4.51-6.23-6.79-1.29-1.42-2.58-2.82-3.9-4.21-1.54-1.63-3-3.33-4.57-4.93-.34-.35-.52-.43-.88-.05-1.49,1.6-2.98,3.21-4.46,4.83-1.46,1.59-2.93,3.19-4.39,4.78-2.22,2.43-4.47,4.85-6.7,7.27-1.33,1.45-2.66,2.89-3.99,4.33-.22.24-.53.41-.54.78,0,.26.08.5.16.74.59,1.69,1.08,3.41,1.65,5.11,2.72,8.15,5.35,16.33,8.05,24.49,1.93,5.84,3.84,11.68,5.74,17.53,1.56,4.79,3.14,9.58,4.7,14.37.06.18.07.39.23.56,3.3-10.07,6.59-20.13,9.88-30.19,1.11-3.38,2.21-6.75,3.31-10.13,1.76-5.42,3.53-10.83,5.33-16.24.61-1.84,1.2-3.69,1.81-5.53.14-.41.26-.82.71-1.01.34-.16.69-.12,1.04-.12,9.6,0,19.2,0,28.8,0,.43,0,.86-.04,1.22.27Z"/>
      <path class="cls-3" d="M21.7.18c1.81,4.26,3.62,8.51,5.43,12.77,1.34,3.15,2.66,6.3,4.01,9.44.22.51.16.64-.4.64-10.23-.01-20.46-.01-30.69-.02.55-.62,1.07-1.26,1.64-1.86,2.18-2.3,4.4-4.55,6.55-6.87,1.71-1.84,3.45-3.65,5.17-5.48,2.54-2.71,5.06-5.44,7.66-8.09.19-.19.35-.44.63-.53Z"/>
      <path class="cls-3" d="M73.11,23.01c1.76-4.14,3.52-8.28,5.27-12.42,1.47-3.47,2.93-6.95,4.4-10.42.05-.06.1-.06.16,0,.65.84,1.44,1.54,2.14,2.33,1.41,1.58,2.94,3.04,4.38,4.58,2.6,2.8,5.24,5.57,7.87,8.34,1.68,1.77,3.35,3.54,5.01,5.33.69.75,1.48,1.43,2.06,2.29-3.38,0-6.75-.02-10.13-.02-7.05,0-14.11,0-21.16-.01h0Z"/>
      <path class="cls-4" d="M82.94.17c-.05,0-.11,0-.16,0-.23,0-.45-.02-.68-.02-19.89,0-39.77,0-59.66,0-.25,0-.5.01-.76.02.22-.25.52-.15.78-.15,19.9,0,39.79,0,59.69,0,.26,0,.56-.1.78.15Z"/>
      <path class="cls-3" d="M72.96,23.01c.05,0,.1,0,.15,0,0,0,0,0,0,0-1.53,4.68-3.06,9.37-4.6,14.05-1.95,5.95-3.9,11.9-5.85,17.85-1.93,5.9-3.87,11.8-5.8,17.71-1.44,4.4-2.87,8.79-4.31,13.19-.07.21-.14.43-.22.64-.33-.12-.29-.42-.36-.63-2.44-7.4-4.87-14.81-7.3-22.22-1.89-5.76-3.77-11.52-5.66-17.28-2-6.09-3.99-12.19-5.99-18.28-.45-1.39-.9-2.77-1.35-4.16-.09-.29-.21-.57-.16-.88.36-.22.76-.24,1.17-.24,13.04,0,26.08,0,39.11,0,.41,0,.81.01,1.16.25Z"/>
      <path class="cls-2" d="M72.96,23.01c-1.66,0-3.32.02-4.98.02-11.83,0-23.65,0-35.48,0-.33,0-.65-.02-.98-.03,1.13-1.25,2.25-2.51,3.39-3.74,3.42-3.69,6.85-7.37,10.27-11.07,2.2-2.38,4.39-4.78,6.58-7.17.34-.38.52-.56.99-.02,1.98,2.24,4.06,4.4,6.09,6.61,3.92,4.26,7.83,8.52,11.75,12.78.8.87,1.66,1.68,2.37,2.63Z"/>
    </g>
  </g>
</svg>